      <svg version="1.1" id="Capa_1" xmlns="http://www.w3.org/2000/svg" xmlns:xlink="http://www.w3.org/1999/xlink" x="0px" y="0px" width="48.905px" height="48.904px" viewBox="0 0 48.905 48.904" style="enable-background:new 0 0 48.905 48.904;" xml:space="preserve">
        <g>
          <g>
            <g>
              <polygon points="22.092,7.262 24.452,6.022 26.811,7.262 26.362,4.635 28.268,2.775 25.633,2.39 24.452,0 23.272,2.39 
				20.635,2.775 22.544,4.635 			" />
            </g>
            <g>
              <g>
                <polygon points="34.237,18.481 35.088,18.481 24.452,7.846 17.67,14.627 				" />
              </g>
              <g>
                <path d="M33.958,26.638l-1.979,0.349c0.323,0.192,0.554,0.533,0.554,0.938c0,0.61-0.496,1.104-1.106,1.104
					c-0.611,0-1.104-0.496-1.104-1.104c0-0.267,0.105-0.498,0.26-0.688l-3.443,0.611c0.85,0.074,1.523,0.762,1.523,1.631
					c0,0.916-0.742,1.656-1.655,1.656c-0.919,0-1.658-0.74-1.658-1.656c0-0.654,0.388-1.209,0.938-1.479l-4.349,0.771
					c0.299,0.151,0.51,0.457,0.51,0.813c0,0.51-0.411,0.922-0.921,0.922c-0.509,0-0.918-0.412-0.918-0.922
					c0-0.242,0.096-0.456,0.248-0.62L10.849,30.74l-2.513,2.514l27.466,2.003l-1.468-1.468h6.777L33.958,26.638z" />
              </g>
              <g>
                <path d="M16.146,25.439l-3.181,3.182l24.242-4.304l-4.406-4.404l-6.46-1.504c0.37,0.354,0.604,0.853,0.604,1.407
					c0,1.077-0.873,1.95-1.95,1.95c-1.076,0-1.946-0.873-1.946-1.95c0-0.877,0.58-1.607,1.375-1.852l-3.319-0.773
					c0.12,0.203,0.205,0.426,0.205,0.676c0,0.756-0.614,1.37-1.37,1.37c-0.754,0-1.367-0.614-1.367-1.37
					c0-0.476,0.258-0.876,0.628-1.121l-2.963-0.689l-2.425,2.425h3.715l-6.957,6.958H16.146L16.146,25.439z" />
              </g>
              <g>
                <path d="M42.468,41.925l-4.812-4.813l-4.768-0.347c0.258,0.265,0.42,0.623,0.42,1.019c0,0.81-0.654,1.465-1.462,1.465
					s-1.46-0.655-1.46-1.465c0-0.481,0.251-0.889,0.613-1.153l-8.132-0.595c0.205,0.207,0.332,0.488,0.332,0.802
					c0,0.634-0.512,1.147-1.146,1.147c-0.632,0-1.144-0.512-1.144-1.147c0-0.381,0.197-0.701,0.484-0.909l-3.998-0.294
					c0.54,0.32,0.907,0.899,0.907,1.571c0,1.011-0.82,1.828-1.832,1.828c-1.008,0-1.827-0.817-1.827-1.828
					c0-0.762,0.466-1.414,1.128-1.689l-2.73-0.199l-6.606,6.608h15.829l-1.257,6.979h6.889l-1.259-6.979L42.468,41.925
					L42.468,41.925z" />
              </g>
            </g>
          </g>
        </g>
        <g>
        </g>
        <g>
        </g>
        <g>
        </g>
        <g>
        </g>
        <g>
        </g>
        <g>
        </g>
        <g>
        </g>
        <g>
        </g>
        <g>
        </g>
        <g>
        </g>
        <g>
        </g>
        <g>
        </g>
        <g>
        </g>
        <g>
        </g>
        <g>
        </g>
      </svg>